<svg width="514" height="478" viewBox="0 0 514 478" fill="none" xmlns="http://www.w3.org/2000/svg">
<path d="M64.8691 65.8943H482.636L470.923 409.322H76.5822L64.8691 65.8943Z" fill="#FAD44D"/>
<path fill-rule="evenodd" clip-rule="evenodd" d="M13.6781 98.9867L1 1.46289L114.128 19.9924L101.45 112.64L13.6781 98.9867ZM513 374.004L412.55 389.608V471.528L501.297 477.379L513 374.004ZM389.145 440.32V450.072H49.7619V122.392H57.5638L63.4152 432.518L389.145 440.32ZM129.731 46.3238V36.5715H461.312V366.202H453.51L445.709 52.1753L129.731 46.3238ZM29.2819 50.2246L40.9848 25.8437V52.1751H53.6629V83.3827H29.2819V50.2246ZM73.1676 24.8685L61.4647 49.2494V82.4075H85.8456V51.1999H73.1676V24.8685ZM488.619 432.518L476.916 456.899V430.568H464.238V399.36H488.619V432.518ZM444.733 457.874L456.436 433.493V400.335H432.055V431.543H444.733V457.874Z" fill="#4D4D4D"/>
<path d="M1 1.46289L1.08082 0.969466L0.417524 0.860822L0.504172 1.52735L1 1.46289ZM13.6781 98.9867L13.1823 99.0512L13.2306 99.4231L13.6012 99.4808L13.6781 98.9867ZM114.128 19.9924L114.623 20.0602L114.689 19.5777L114.208 19.499L114.128 19.9924ZM101.45 112.64L101.373 113.134L101.876 113.212L101.945 112.708L101.45 112.64ZM412.55 389.608L412.474 389.114L412.05 389.179V389.608H412.55ZM513 374.004L513.497 374.06L513.571 373.409L512.923 373.51L513 374.004ZM412.55 471.528H412.05V471.996L412.518 472.027L412.55 471.528ZM501.297 477.379L501.264 477.878L501.74 477.909L501.794 477.435L501.297 477.379ZM389.145 450.072V450.572H389.645V450.072H389.145ZM389.145 440.32H389.645V439.832L389.157 439.82L389.145 440.32ZM49.7619 450.072H49.2619V450.572H49.7619V450.072ZM49.7619 122.392V121.892H49.2619V122.392H49.7619ZM57.5638 122.392L58.0637 122.383L58.0545 121.892H57.5638V122.392ZM63.4152 432.518L62.9153 432.528L62.9244 433.007L63.4033 433.018L63.4152 432.518ZM129.731 36.5715V36.0715H129.231V36.5715H129.731ZM129.731 46.3238H129.231V46.8147L129.722 46.8238L129.731 46.3238ZM461.312 36.5715H461.812V36.0715H461.312V36.5715ZM461.312 366.202V366.702H461.812V366.202H461.312ZM453.51 366.202L453.011 366.214L453.023 366.702H453.51V366.202ZM445.709 52.1753L446.208 52.1629L446.197 51.6842L445.718 51.6754L445.709 52.1753ZM40.9848 25.8437H41.4848L40.534 25.6273L40.9848 25.8437ZM29.2819 50.2246L28.8312 50.0083L28.7819 50.1109V50.2246H29.2819ZM40.9848 52.1751H40.4848V52.6751H40.9848V52.1751ZM53.6629 52.1751H54.1629V51.6751H53.6629V52.1751ZM53.6629 83.3827V83.8827H54.1629V83.3827H53.6629ZM29.2819 83.3827H28.7819V83.8827H29.2819V83.3827ZM61.4647 49.2494L61.0139 49.0331L60.9647 49.1356V49.2494H61.4647ZM73.1676 24.8685H73.6676L72.7168 24.6521L73.1676 24.8685ZM61.4647 82.4075H60.9647V82.9075H61.4647V82.4075ZM85.8456 82.4075V82.9075H86.3456V82.4075H85.8456ZM85.8456 51.1999H86.3456V50.6999H85.8456V51.1999ZM73.1676 51.1999H72.6676V51.6999H73.1676V51.1999ZM476.916 456.899H476.416L477.367 457.115L476.916 456.899ZM488.619 432.518L489.07 432.734L489.119 432.632V432.518H488.619ZM476.916 430.568H477.416V430.068H476.916V430.568ZM464.238 430.568H463.738V431.068H464.238V430.568ZM464.238 399.36V398.86H463.738V399.36H464.238ZM488.619 399.36H489.119V398.86H488.619V399.36ZM456.436 433.493L456.887 433.71L456.936 433.607V433.493H456.436ZM444.733 457.874H444.233L445.184 458.091L444.733 457.874ZM456.436 400.335H456.936V399.835H456.436V400.335ZM432.055 400.335V399.835H431.555V400.335H432.055ZM432.055 431.543H431.555V432.043H432.055V431.543ZM444.733 431.543H445.233V431.043H444.733V431.543ZM0.504172 1.52735L13.1823 99.0512L14.1739 98.9222L1.49583 1.39843L0.504172 1.52735ZM114.208 19.499L1.08082 0.969466L0.91918 1.95632L114.047 20.4858L114.208 19.499ZM101.945 112.708L114.623 20.0602L113.632 19.9246L100.954 112.572L101.945 112.708ZM13.6012 99.4808L101.373 113.134L101.526 112.146L13.7549 98.4926L13.6012 99.4808ZM412.627 390.102L513.077 374.498L512.923 373.51L412.474 389.114L412.627 390.102ZM413.05 471.528V389.608H412.05V471.528H413.05ZM501.33 476.88L412.583 471.029L412.518 472.027L501.264 477.878L501.33 476.88ZM512.503 373.948L500.8 477.323L501.794 477.435L513.497 374.06L512.503 373.948ZM389.645 450.072V440.32H388.645V450.072H389.645ZM49.7619 450.572H389.145V449.572H49.7619V450.572ZM49.2619 122.392V450.072H50.2619V122.392H49.2619ZM57.5638 121.892H49.7619V122.892H57.5638V121.892ZM63.9151 432.509L58.0637 122.383L57.0639 122.402L62.9153 432.528L63.9151 432.509ZM389.157 439.82L63.4272 432.018L63.4033 433.018L389.133 440.82L389.157 439.82ZM129.231 36.5715V46.3238H130.231V36.5715H129.231ZM461.312 36.0715H129.731V37.0715H461.312V36.0715ZM461.812 366.202V36.5715H460.812V366.202H461.812ZM453.51 366.702H461.312V365.702H453.51V366.702ZM445.209 52.1877L453.011 366.214L454.01 366.19L446.208 52.1629L445.209 52.1877ZM129.722 46.8238L445.699 52.6752L445.718 51.6754L129.741 45.8239L129.722 46.8238ZM40.534 25.6273L28.8312 50.0083L29.7327 50.441L41.4355 26.06L40.534 25.6273ZM41.4848 52.1751V25.8437H40.4848V52.1751H41.4848ZM53.6629 51.6751H40.9848V52.6751H53.6629V51.6751ZM54.1629 83.3827V52.1751H53.1629V83.3827H54.1629ZM29.2819 83.8827H53.6629V82.8827H29.2819V83.8827ZM28.7819 50.2246V83.3827H29.7819V50.2246H28.7819ZM61.9155 49.4658L73.6183 25.0848L72.7168 24.6521L61.0139 49.0331L61.9155 49.4658ZM61.9647 82.4075V49.2494H60.9647V82.4075H61.9647ZM85.8456 81.9075H61.4647V82.9075H85.8456V81.9075ZM85.3456 51.1999V82.4075H86.3456V51.1999H85.3456ZM73.1676 51.6999H85.8456V50.6999H73.1676V51.6999ZM72.6676 24.8685V51.1999H73.6676V24.8685H72.6676ZM477.367 457.115L489.07 432.734L488.168 432.302L476.465 456.683L477.367 457.115ZM476.416 430.568V456.899H477.416V430.568H476.416ZM464.238 431.068H476.916V430.068H464.238V431.068ZM463.738 399.36V430.568H464.738V399.36H463.738ZM488.619 398.86H464.238V399.86H488.619V398.86ZM489.119 432.518V399.36H488.119V432.518H489.119ZM455.985 433.277L444.283 457.658L445.184 458.091L456.887 433.71L455.985 433.277ZM455.936 400.335V433.493H456.936V400.335H455.936ZM432.055 400.835H456.436V399.835H432.055V400.835ZM432.555 431.543V400.335H431.555V431.543H432.555ZM444.733 431.043H432.055V432.043H444.733V431.043ZM445.233 457.874V431.543H444.233V457.874H445.233Z" fill="#4D4D4D"/>
</svg>
