<svg width="399" height="399" viewBox="0 0 399 399" fill="none" xmlns="http://www.w3.org/2000/svg">
<path fill-rule="evenodd" clip-rule="evenodd" d="M21.3812 251.017C-7.12704 222.509 -7.1271 176.288 21.3812 147.78L147.78 21.3812C176.288 -7.12704 222.509 -7.1271 251.017 21.3812L377.416 147.78C405.924 176.288 405.924 222.509 377.416 251.017L251.017 377.416C222.509 405.924 176.288 405.924 147.78 377.416L21.3812 251.017ZM190.037 117.089H112.798L113.513 194.328H152.847C154.564 219.502 127.34 227.226 113.513 227.941V264.415C170.727 260.982 187.414 223.888 188.606 205.77L190.037 117.089ZM205.77 117.089H283.009L281.579 205.77C280.387 223.888 263.7 260.982 206.486 264.415V227.941C220.312 227.226 247.537 219.502 245.82 194.328H206.486L205.77 117.089Z" fill="#EA7854"/>
</svg>
